<svg id="collective" data-name="4 petal v2 exp" xmlns="http://www.w3.org/2000/svg" xmlns:xlink="http://www.w3.org/1999/xlink" viewBox="0 0 38 38"><defs><style>.cls-1{fill:#fff;}.cls-1,.cls-3{fill-rule:evenodd;}.cls-2{mask:url(#mask);}.cls-3{fill:#4d4d4d;}.cls-4{mask:url(#mask-2);}.cls-5{mask:url(#mask-3);}.cls-6{mask:url(#mask-4);}</style><mask id="mask" x="94.93" y="24.08" width="34.49" height="84.48" maskUnits="userSpaceOnUse"><g id="mask-6"><path id="path-5" class="cls-1" d="M109.17,49.16s21.48,27.46-1.74,59.4c0,0,25.62-20.76,21.56-43.91-3.06-17.42-17.45-27.75-17.21-40.57,0,0-28.86,34.07-11,64.28,0,0-5.11-24.24,8.42-39.2"/></g></mask><mask id="mask-2" x="108.34" y="95.18" width="84.46" height="34.48" maskUnits="userSpaceOnUse"><g id="mask-6-2" data-name="mask-6"><path id="path-5-2" data-name="path-5" class="cls-1" d="M167.74,109.5s-27.56,21.35-59.4-2c0,0,20.65,25.72,43.82,21.76,17.42-3,27.82-17.31,40.64-17,0,0-33.93-29-64.23-11.32,0,0,24.26-5,39.17,8.6"/></g></mask><mask id="mask-3" x="88.53" y="107.33" width="34.69" height="84.59" maskUnits="userSpaceOnUse"><g id="mask-6-3" data-name="mask-6"><path id="path-5-3" data-name="path-5" class="cls-1" d="M109.84,166.74S87,140.42,108.55,107.33c0,0-24.53,22-19.29,45,3.94,17.23,18.84,26.81,19.26,39.63,0,0,27.08-35.5,7.73-64.76,0,0,6.34,24-6.41,39.58"/></g></mask><mask id="mask-4" x="23.2" y="87.89" width="84.59" height="34.69" maskUnits="userSpaceOnUse"><g id="mask-6-4" data-name="mask-6"><path id="path-5-4" data-name="path-5" class="cls-1" d="M48.38,109.2s26.32-22.86,59.41-1.29c0,0-22-24.53-45-19.29C45.6,92.56,36,107.46,23.2,107.88c0,0,35.5,27.08,64.76,7.73,0,0-23.95,6.34-39.58-6.41"/></g></mask></defs><g class="cls-2"><path id="Fill-32" class="cls-3" d="M109.17,49.16s21.48,27.46-1.74,59.4c0,0,25.62-20.76,21.56-43.91-3.06-17.42-17.45-27.75-17.21-40.57,0,0-28.86,34.07-11,64.28,0,0-5.11-24.24,8.42-39.2"/></g><g class="cls-4"><path id="Fill-32-2" data-name="Fill-32" class="cls-3" d="M167.74,109.5s-27.56,21.35-59.4-2c0,0,20.65,25.72,43.82,21.76,17.42-3,27.82-17.31,40.64-17,0,0-33.93-29-64.23-11.32,0,0,24.26-5,39.17,8.6"/></g><g class="cls-5"><path id="Fill-32-3" data-name="Fill-32" class="cls-3" d="M109.84,166.74S87,140.42,108.55,107.33c0,0-24.53,22-19.29,45,3.94,17.23,18.84,26.81,19.26,39.63,0,0,27.08-35.5,7.73-64.76,0,0,6.34,24-6.41,39.58"/></g><g class="cls-6"><path id="Fill-32-4" data-name="Fill-32" class="cls-3" d="M48.38,109.2s26.32-22.86,59.41-1.29c0,0-22-24.53-45-19.29C45.6,92.56,36,107.46,23.2,107.88c0,0,35.5,27.08,64.76,7.73,0,0-23.95,6.34-39.58-6.41"/></g></svg>